<svg width="60" height="40" viewBox="0 0 60 40" fill="none" xmlns="http://www.w3.org/2000/svg">
<path d="M11.412 6.512H16.02L18.936 14.972L21.888 6.512H26.46L22.068 18.14L25.308 26.276L32.544 6.44H37.944L27.72 32H23.436L18.936 21.272L14.472 32H10.188L0 6.44H5.328L12.6 26.276L15.768 18.14L11.412 6.512Z" fill="white"/>
<path d="M33.412 -14.488H38.02L40.936 -6.028L43.888 -14.488H48.46L44.068 -2.86L47.308 5.276L54.544 -14.56H59.944L49.72 11H45.436L40.936 0.272L36.472 11H32.188L22 -14.56H27.328L34.6 5.276L37.768 -2.86L33.412 -14.488Z" fill="white"/>
</svg>
